
<svg viewBox="0 0 24 30" fill="currentColor"  xmlns="http://www.w3.org/2000/svg">
<path fill-rule="evenodd" clip-rule="evenodd" d="M19.1522 3.09534C20.9791 5.00561 22.1129 7.65613 22.1129 10.5726C22.1129 13.4879 20.9791 16.1361 19.1522 18.0463C17.3249 19.9589 14.7896 21.144 12.001 21.144C9.21124 21.144 6.67609 19.9589 4.84894 18.0463C3.02179 16.1361 1.888 13.4879 1.888 10.5726C1.888 7.65613 3.02179 5.00562 4.84894 3.09534C5.83173 2.06787 7.01715 1.2522 8.33881 0.71558C9.47467 0.25293 10.712 0 12.001 0C13.2798 0 14.5047 0.2483 15.634 0.70374C16.9658 1.23926 18.1625 2.06079 19.1522 3.09534ZM6.17962 16.6575C7.67352 18.217 9.72466 19.1774 12.001 19.1774C14.2774 19.1774 16.3273 18.217 17.8214 16.6575C19.312 15.0957 20.2316 12.9524 20.2316 10.5726C20.2316 8.19287 19.312 6.04602 17.8214 4.48767C16.8406 3.46496 15.6193 2.69751 14.2514 2.29382C13.5366 2.07958 12.7812 1.96789 12.001 1.96789C11.2084 1.96789 10.4417 2.08557 9.71905 2.3009C8.36236 2.70935 7.15337 3.47192 6.17962 4.48767C4.68902 6.04602 3.76934 8.19287 3.76934 10.5726C3.76934 12.9524 4.68902 15.0957 6.17962 16.6575ZM12.01 4.58795C11.6062 4.58795 11.1978 4.62921 10.7858 4.71515L10.7695 4.71747L10.567 3.75592L10.5858 3.75116C11.0624 3.65228 11.5403 3.604 12.01 3.604C12.4419 3.604 12.8679 3.64532 13.2845 3.7229L13.1033 4.68915C12.7466 4.62213 12.3806 4.58795 12.01 4.58795ZM6.44 14.0223L7.25226 13.468C7.69831 14.1201 8.26667 14.6732 8.91901 15.0994L8.38092 15.9232C7.62188 15.4266 6.95929 14.7839 6.44 14.0223ZM8.81811 5.46692L8.26245 4.65601C7.5022 5.17615 6.85962 5.83887 6.36401 6.59803L7.18798 7.13587C7.61278 6.48377 8.16601 5.91297 8.81811 5.46692ZM6.37616 9.1452C6.30903 9.50421 6.27387 9.87139 6.27387 10.2433V10.2433C6.27387 10.647 6.31488 11.0566 6.40082 11.4686L6.40326 11.4791L5.44061 11.6804L5.43817 11.6686C5.33808 11.1908 5.28998 10.7141 5.28998 10.2433C5.28998 9.80908 5.331 9.38178 5.4101 8.96399L6.37616 9.1452ZM13.2145 15.8912C12.8024 15.9772 12.3939 16.0183 11.9903 16.0183C11.6161 16.0183 11.2464 15.9831 10.8863 15.9147L10.704 16.881C11.1229 16.9599 11.5538 17.0011 11.9904 17.0011C12.4598 17.0011 12.9366 16.9528 13.4144 16.854L13.4203 16.8527L13.2201 15.89L13.2145 15.8912ZM18.5568 8.81299L18.5614 8.83667C18.6616 9.31444 18.7085 9.79223 18.7085 10.2618C18.7085 10.7008 18.6674 11.1328 18.5874 11.5542L17.621 11.3706C17.6893 11.0093 17.7258 10.6385 17.7258 10.2618C17.7258 9.85815 17.6846 9.44861 17.5986 9.03784L17.594 9.0166L18.5568 8.81299ZM15.173 15.0415L15.7273 15.8536C16.4888 15.3346 17.1326 14.672 17.6292 13.9139L16.8065 13.375C16.3793 14.027 15.8262 14.5956 15.173 15.0415L15.173 15.0415ZM17.5531 6.46936L16.7421 7.02496C16.2949 6.3728 15.7252 5.82086 15.072 5.39593L15.6086 4.57202C16.3678 5.06641 17.0317 5.70905 17.5531 6.46936ZM15.3721 9.13995L13.0416 8.80145L11.9996 6.69L10.9576 8.80145L8.62701 9.13995L10.3133 10.7838L9.91534 13.1044L11.9996 12.0087L14.0838 13.1044L13.6859 10.7838L15.3721 9.13995ZM4.73693 19.2418L4.67233 19.1896C4.54081 19.0834 4.40904 18.9771 4.28161 18.8638L4.28051 18.8675L4.26867 18.858L0.60461 26.7048L0.5 26.986L0.63892 27.2061C0.73902 27.3592 0.90125 27.4499 1.08265 27.4499H1.16847L4.67006 26.3611L6.05519 29.6755C6.14125 29.8708 6.32704 30.0003 6.54262 30.0003C6.74733 30.0003 6.93337 29.8803 7.01918 29.6943L9.85341 23.6259L10.6901 21.8428L10.6867 21.8416L10.6925 21.8274C8.46107 21.5097 6.4225 20.587 4.73695 19.2418L4.73693 19.2418ZM19.7314 18.8686L20.5542 20.6375L23.5002 26.939L23.3564 27.2061C23.2563 27.3592 23.094 27.4499 22.9128 27.4499H22.8408L22.7598 27.4262L19.3254 26.3612L17.9402 29.6755C17.8542 29.8708 17.6685 30.0003 17.4529 30.0003C17.248 30.0003 17.062 29.8814 16.9763 29.6943L13.303 21.8239L13.3171 21.8204L13.3159 21.8168C13.4364 21.801 13.5547 21.7791 13.6731 21.7571C13.7121 21.7499 13.7511 21.7427 13.7903 21.7357C16.0334 21.3249 18.0745 20.3091 19.7222 18.858L19.728 18.8709L19.7314 18.8686Z" />
</svg>

