<svg  fill="currentColor" viewBox="0 0 27 26"  xmlns="http://www.w3.org/2000/svg">
<path fill-rule="evenodd" clip-rule="evenodd" d="M19.1775 24.0129C19.4027 24.0117 19.5858 23.826 19.5858 23.5985V18.9359L21.5441 16.9488V24.4482C21.543 25.7748 20.4861 25.9989 19.1775 26H2.36658C1.05933 25.9989 0.00146 24.9252 0 23.5985V2.40259C0.00147 1.07593 1.05933 0.0011 2.36658 0H19.1775C20.4861 0.0011 21.543 1.07593 21.5441 2.40259V6.40253L19.5858 8.38971V2.40259C19.5858 2.17407 19.4027 1.98828 19.1775 1.98718H2.36658C2.14149 1.98828 1.9596 2.17407 1.95838 2.40259V23.5985C1.9596 23.826 2.14148 24.0117 2.36658 24.0129H19.1775ZM25.5569 6.67401L26.5491 7.6651C27.1499 8.26703 27.1499 9.242 26.5491 9.84381L25.6208 10.7712L22.452 7.60248L23.3793 6.67401C23.9812 6.0733 24.9562 6.07208 25.5569 6.67401ZM13.76 19.4561V16.2868L21.5879 8.45898L24.7571 11.6284L16.9294 19.4561H13.76ZM6.34717 6.93433H15.2988V8.42626H6.34717V6.93433ZM15.2988 12.3984H6.34717V13.8904H15.2988V12.3984ZM6.36633 17.8625H11.8368V19.3545H6.36633V17.8625Z" />
</svg>
