<svg viewBox="0 0 109 40" fill="currentColor" xmlns="http://www.w3.org/2000/svg">
<path fill-rule="evenodd" clip-rule="evenodd" d="M85.9792 8.62317C83.9956 8.62317 82.6182 10.3037 82.6182 12.3424V19.285H79.257V0H82.6182V7.54871C83.8304 5.9784 85.3181 5.51014 86.8608 5.51014C90.718 5.51014 92.4261 8.12733 92.4261 12.1221V19.285H89.0649V12.1495C89.0649 9.67017 87.7701 8.62317 85.9792 8.62317ZM63.0323 0.0275879H66.3659V19.2851H63.0323V0.0275879ZM15.8646 11.5165H25.3419V19.313H28.9509V0.0280151H25.3419V8.15522H15.8646V0.0280151H12.228V19.313H15.8646V11.5165ZM37.6932 19.6436C39.7593 19.6436 42.1011 18.9273 43.5338 17.4395L41.3847 15.3182C40.6133 16.1173 38.988 16.5855 37.7482 16.5855C35.3789 16.5855 33.9188 15.3735 33.6983 13.6928H44.3051C44.8286 8.10019 41.9909 5.29001 37.4451 5.29001C33.0372 5.29001 30.227 8.26547 30.227 12.3979C30.227 16.7508 33.0096 19.6436 37.6932 19.6436ZM37.5552 8.26547C39.4838 8.26547 40.8614 9.14706 41.0816 10.9102H33.7535C34.2493 9.14707 35.7371 8.26547 37.5552 8.26547ZM57.3039 17.3014C56.5324 18.8992 54.4111 19.6708 52.8958 19.6983C48.8736 19.7259 45.898 17.2461 45.898 12.4801C45.898 7.79668 49.0113 5.34465 52.9786 5.37224C54.7968 5.37224 56.5324 6.22624 57.3039 7.57622L57.414 5.70281H60.6374V19.2851H57.4692L57.3039 17.3014ZM53.2814 16.6125C58.5711 16.6125 58.5711 8.37518 53.2814 8.37518C51.0499 8.37518 49.2592 9.89044 49.2592 12.4802C49.2592 15.0699 51.0499 16.6125 53.2814 16.6125ZM70.8417 14.491C70.8417 17.8798 72.7702 19.5602 75.7179 19.4501C76.7374 19.4225 77.5363 19.2572 78.5006 18.8715L77.5638 16.0062C77.068 16.2543 76.4618 16.4196 75.9384 16.4196C74.8915 16.4196 74.1752 15.7859 74.1752 14.491V8.62283H77.9496V5.73013H74.2028V2.418H70.8417V5.73013H68.307V8.62283H70.8417L70.8417 14.491ZM101.771 13.6346L105.449 5.37201H109L93.5334 39.9999L77.775 26.5792L0 26.5777V23.4407L79.0009 23.434L92.3602 34.7745L99.9926 17.6288L94.5596 5.37201H98.1082L101.771 13.6346Z"/>
</svg>
